<svg width="20" height="20" viewBox="0 0 20 20" fill="none" xmlns="http://www.w3.org/2000/svg">
<path d="M19.9693 7.70168C19.8955 7.47469 19.6994 7.30927 19.4632 7.275L13.3128 6.38126L10.5622 0.807941C10.4566 0.593953 10.2386 0.458496 9.99999 0.458496C9.76135 0.458496 9.54343 0.593953 9.43781 0.807941L6.68722 6.38126L0.536763 7.275C0.300624 7.30927 0.104439 7.47469 0.0307136 7.70168C-0.043054 7.92862 0.0184677 8.17776 0.189366 8.34431L4.63983 12.6825L3.58919 18.8081C3.54886 19.0433 3.64558 19.281 3.83863 19.4213C4.03163 19.5615 4.28754 19.5801 4.49886 19.469L9.99999 16.5769L15.5011 19.469C15.5929 19.5172 15.6931 19.5411 15.7928 19.5411C15.9228 19.5411 16.0522 19.5007 16.1614 19.4214C16.3544 19.2811 16.4511 19.0434 16.4108 18.8082L15.3602 12.6826L19.8106 8.34435C19.9815 8.17772 20.043 7.92858 19.9693 7.70168Z" fill="#99BFC4"/>
</svg>
